[img]http://img408.imageshack.us/img408/3760/18658front.jpg[/img]

[img]http://leetleech.org/images/48874973695367351744.png[/img]

Format                           : AVI
Format/Info                      : Audio Video Interleave
Format profile                   : OpenDML
File size                        : 1.42 GiB
Duration                         : 1h 34mn
Overall bit rate                 : 2 154 Kbps
Writing library                  : MPlayer

Video
ID                               : 0
Format                           : MPEG-4 Visual
Format profile                   : Advanced Simple@L5
Format settings, BVOP            : Yes
Format settings, QPel            : No
Format settings, GMC             : No warppoints
Format settings, Matrix          : Custom
Muxing mode                      : Packed bitstream
Codec ID                         : XVID
Codec ID/Hint                    : XviD
Duration                         : 1h 34mn
Bit rate                         : 1 700 Kbps
Width                            : 720 pixels
Height                           : 304 pixels
Display aspect ratio             : 2.35:1
Frame rate                       : 23.976 fps
Color space                      : YUV
Chroma subsampling               : 4:2:0
Bit depth                        : 8 bits
Scan type                        : Progressive
Bits/(Pixel*Frame)               : 0.324
Stream size                      : 1.12 GiB (79%)
Writing library                  : XviD 1.2.1 (UTC 2008-12-04)

Audio
ID                               : 1
Format                           : AC-3
Format/Info                      : Audio Coding 3
Mode extension                   : CM (complete main)
Codec ID                         : 2000
Duration                         : 1h 34mn
Bit rate mode                    : Constant
Bit rate                         : 448 Kbps
Channel(s)                       : 6 channels
Channel positions                : Front: L C R, Side: L R, LFE
Sampling rate                    : 48.0 KHz
Bit depth                        : 16 bits
Stream size                      : 301 MiB (21%)
Alignment                        : Split accross interleaves
Interleave, duration             : 500 ms (11.99 video frames)
Interleave, preload duration     : 500 ms


[url]http://www.imdb.com/title/tt0477080/[/url]

Users: 7.0/10 (15,988 votes) 166 reviews | Critics: 202 reviews Metascore: 69/100 (based on 34 reviews from Metacritic.com)

With an unmanned, half-mile-long freight train barreling toward a city, a veteran engineer and a young conductor race against the clock to prevent a catastrophe.
Director:
Tony Scott
Writer:
Mark Bomback
Stars:
Denzel Washington, Chris Pine and Rosario Dawson


[img]http://img17.imageshack.us/img17/97/vlcsnap2011012313h48m59.png[/img]
[img]http://img19.imageshack.us/img19/9281/vlcsnap2011012313h49m18.png[/img]
[img]http://img207.imageshack.us/img207/5254/vlcsnap2011012313h50m01.png[/img]



Greetz to Imagine ,Flawl3ss ,Santi ,Vision ,Kingdom,BDK,DiGiTALiNK,LEGION,Classified,THC,WBZ,Rx ,Feel Free and to all who share


[img]http://img411.imageshack.us/img411/6898/sig1n.jpg[/img]
